<svg xmlns="http://www.w3.org/2000/svg" viewBox="176 317 840.2 149.5" role="img" aria-label="TokenMind logo">
  <defs>
    <mask id="tokenmind-wordmark-mask" maskUnits="userSpaceOnUse" x="176" y="317" width="840.2" height="149.5">
      <rect x="176" y="317" width="840.2" height="149.5" fill="black"/>
        <path d="M629.227417,363.999756 
	C629.226868,353.014648 629.226868,342.529541 629.226868,331.414734 
	C637.306763,331.414734 645.238892,331.280121 653.156372,331.559814 
	C654.344360,331.601776 655.725647,333.409485 656.575928,334.692932 
	C670.358704,355.497253 684.068787,376.349701 697.800476,397.187897 
	C698.791199,398.691284 699.821411,400.168671 701.245422,402.264893 
	C706.926392,392.975494 712.370544,384.161530 717.726685,375.294434 
	C725.897339,361.767670 734.078552,348.246033 742.078247,334.618256 
	C743.546082,332.117798 745.156921,331.166351 748.006409,331.285706 
	C753.140076,331.500641 758.289246,331.346436 763.791809,331.346436 
	C763.791809,372.534607 763.791809,413.373413 763.791809,454.492554 
	C753.682678,454.492554 743.755371,454.492554 733.334473,454.492554 
	C733.334473,427.435242 733.334473,400.428558 733.334473,373.421906 
	C733.059387,373.356842 732.784302,373.291779 732.509216,373.226715 
	C718.269592,397.655243 704.029907,422.083740 689.308350,447.338989 
	C673.496582,422.873596 658.185059,399.182220 642.369690,374.711334 
	C642.369690,401.661987 642.369690,427.809662 642.369690,454.336609 
	C637.890320,454.336609 633.859253,454.336609 629.227966,454.336609 
	C629.227966,424.359039 629.227966,394.429382 629.227417,363.999756 
z" fill="white"/>
        <path d="M997.025635,454.804077 
	C992.877625,454.804535 989.222351,454.804535 985.155945,454.804535 
	C984.742249,451.578400 984.353271,448.544800 983.961792,445.492004 
	C983.446411,445.613556 983.053101,445.583282 982.887207,445.762970 
	C971.655457,457.931061 958.171570,459.804443 943.192871,454.297455 
	C927.750793,448.620148 919.934753,436.726959 918.451294,421.029816 
	C917.748840,413.596466 918.539246,405.594879 920.591919,398.404114 
	C928.432495,370.936951 962.056580,361.437927 983.195068,377.378723 
	C983.195068,361.983948 983.195068,346.955750 983.195068,331.557678 
	C992.900208,331.557678 1002.115845,331.557678 1012.158569,331.557678 
	C1012.158569,372.316437 1012.158569,413.190155 1012.158569,454.803650 
	C1007.722046,454.803650 1002.620117,454.803650 997.025635,454.804077 
M948.026001,419.263306 
	C948.487366,426.293427 949.523438,433.166687 954.040588,438.935822 
	C958.077881,444.092133 964.478577,445.949219 970.546204,443.857361 
	C977.438965,441.481079 983.378540,434.368256 983.359375,428.547821 
	C983.322083,417.243988 983.325256,405.939911 983.240234,394.636475 
	C983.229370,393.196106 983.263306,391.386932 982.471985,390.382233 
	C978.117371,384.853119 972.855530,380.544250 965.287598,381.020599 
	C957.859131,381.488129 953.097107,386.153870 951.547668,392.862640 
	C949.626221,401.182220 949.083252,409.820129 948.026001,419.263306 
z" fill="white"/>
        <path d="M860.884888,388.717041 
	C855.354065,391.092651 853.636597,394.731201 853.783997,400.566956 
	C854.233582,418.366425 853.947083,436.184479 853.947083,454.360260 
	C844.387146,454.360260 835.156616,454.360260 825.614075,454.360260 
	C825.614075,426.600372 825.614075,398.983276 825.614075,370.942566 
	C834.840942,370.942566 844.208618,370.942566 853.798828,370.942566 
	C853.798828,374.708740 853.798828,378.349091 853.798828,382.989807 
	C857.505859,380.305420 860.598999,378.033478 863.725281,375.808105 
	C871.489319,370.281403 880.036316,367.638641 889.605713,368.959503 
	C900.217773,370.424286 907.667053,377.502930 907.894592,388.176331 
	C908.362610,410.128815 908.035339,432.098297 908.035339,454.405853 
	C898.802673,454.405853 889.545105,454.405853 879.785583,454.405853 
	C879.696533,453.166901 879.511658,451.742188 879.504333,450.316559 
	C879.409546,431.984375 879.355774,413.651947 879.258301,395.319794 
	C879.198364,384.072937 875.309326,381.628815 865.172729,386.426788 
	C863.822449,387.065887 862.522522,387.811432 860.884888,388.717041 
z" fill="white"/>
        <path d="M598.036987,454.716980 
	C594.247131,454.717316 590.950134,454.717316 587.072632,454.717316 
	C587.072632,452.482391 587.075317,450.712555 587.072205,448.942719 
	C587.039246,430.451019 587.057983,411.959045 586.947998,393.467804 
	C586.897827,385.030457 583.057617,382.480896 575.037048,385.339264 
	C573.788757,385.784088 572.617371,386.440033 571.390991,386.951599 
	C564.470215,389.838531 561.157898,394.199982 561.537537,402.505035 
	C562.319641,419.612427 561.772827,436.780518 561.772827,454.324768 
	C552.257751,454.324768 543.027588,454.324768 533.430664,454.324768 
	C533.430664,426.584717 533.430664,398.845886 533.430664,370.830719 
	C542.550232,370.830719 551.801941,370.830719 561.560913,370.830719 
	C561.560913,374.607910 561.560913,378.176758 561.560913,382.542419 
	C565.456848,379.758118 568.545715,377.326752 571.849976,375.235870 
	C578.706970,370.896881 585.950317,367.878448 594.391907,368.706177 
	C608.307617,370.070618 615.621643,377.328186 615.821655,391.382324 
	C616.117737,412.196106 615.898254,433.017212 615.898254,454.716675 
	C610.015808,454.716675 604.272827,454.716675 598.036987,454.716980 
z" fill="white"/>
        <path d="M482.915100,442.298218 
	C497.595184,450.028717 510.632660,444.702972 523.557312,438.299683 
	C525.664185,446.581085 525.709717,446.676147 518.133545,450.304108 
	C501.341370,458.345276 484.102478,459.053314 466.816620,452.338806 
	C445.614532,444.103149 436.401276,420.453003 444.503479,396.787506 
	C454.844543,366.582642 494.587341,361.299164 513.883789,377.152069 
	C525.231812,386.474976 527.535889,399.411591 526.929993,414.066101 
	C517.578186,414.066101 508.328247,414.066132 499.078308,414.066132 
	C489.931458,414.066132 480.784607,414.066101 471.100433,414.066101 
	C471.545563,425.112213 473.127106,435.160126 482.915100,442.298218 
M496.957184,384.732452 
	C490.951660,375.314758 480.328918,375.489532 475.545074,385.606903 
	C472.995911,390.998138 472.207001,397.221710 470.477203,403.610291 
	C480.990021,403.610291 490.370056,403.610291 501.092834,403.610291 
	C499.737854,397.213531 498.490417,391.324493 496.957184,384.732452 
z" fill="white"/>
        <path d="M220.481873,376.999603 
	C220.477921,369.717926 220.477921,362.936188 220.477921,355.791077 
	C231.163483,355.280243 241.416412,354.790070 252.042206,354.282074 
	C252.042206,387.789612 252.042206,421.140930 252.042206,454.723145 
	C241.712280,454.723145 231.448318,454.723145 220.485825,454.723145 
	C220.485825,428.987488 220.485825,403.243500 220.481873,376.999603 
z" fill="white"/>
        <path d="M424.944458,393.947327 
	C421.800995,397.146149 418.912445,400.098907 415.872559,403.206360 
	C427.536774,420.026764 439.171936,436.805206 451.606659,454.736694 
	C445.278412,454.736694 439.815460,454.043488 434.596893,454.878174 
	C423.045166,456.725830 415.701691,452.565247 410.553864,442.014801 
	C406.963806,434.656982 401.467773,428.229126 396.115234,420.342896 
	C396.115234,432.348480 396.115234,443.187927 396.115234,454.393677 
	C386.379242,454.393677 377.130768,454.393677 367.168549,454.393677 
	C367.168549,448.594086 367.027344,442.673218 367.284454,436.769745 
	C367.337616,435.549713 368.727112,434.247955 369.746826,433.230591 
	C390.139282,412.885010 410.561584,392.569305 431.013458,372.283478 
	C431.786987,371.516205 432.900116,370.650482 433.885162,370.612518 
	C438.471100,370.435638 443.067627,370.534149 447.624939,370.534149 
	C439.968475,378.443817 432.583923,386.072540 424.944458,393.947327 
z" fill="white"/>
        <path d="M354.452667,393.576691 
	C364.544220,420.997894 348.884125,447.105835 326.793274,454.480896 
	C303.084473,462.396057 277.282532,451.437347 267.917480,429.392365 
	C258.176300,406.462006 267.469635,379.862732 289.368042,368.745544 
	C311.047546,357.739471 343.108734,364.074554 354.452667,393.576691 
M282.797546,389.412018 
	C282.025452,390.692841 281.175537,391.933624 280.492920,393.260468 
	C268.790863,416.006561 283.276215,444.105560 307.664032,445.996277 
	C324.589050,447.308380 339.364044,437.131500 344.002930,420.966339 
	C348.844177,404.096039 341.418457,386.108917 326.413788,378.360596 
	C311.635223,370.729034 294.072235,374.966858 282.797546,389.412018 
z" fill="white"/>
        <path d="M781.956787,414.000000 
	C781.955933,399.359802 781.955933,385.219604 781.955933,370.872681 
	C791.493286,370.872681 800.779602,370.872681 810.400879,370.872681 
	C810.400879,398.689148 810.400879,426.369751 810.400879,454.380951 
	C800.973938,454.380951 791.737122,454.380951 781.957581,454.380951 
	C781.957581,441.028961 781.957581,427.764496 781.956787,414.000000 
z" fill="white"/>
        <path d="M367.224609,409.998840 
	C367.222565,383.568848 367.222565,357.638733 367.222565,331.456970 
	C376.894836,331.456970 386.115845,331.456970 395.851227,331.456970 
	C395.851227,336.011688 395.850861,340.296875 395.851318,344.582092 
	C395.853149,362.232178 395.899475,379.882507 395.790802,397.531921 
	C395.779541,399.360870 395.396057,401.690186 394.254211,402.929230 
	C385.932343,411.959229 377.371918,420.769440 368.886841,429.649078 
	C368.333466,429.309723 367.780060,428.970398 367.226654,428.631042 
	C367.226654,422.586914 367.226654,416.542786 367.224609,409.998840 
z" fill="white"/>
        <path d="M224.000122,331.135986 
	C250.129684,331.124542 275.759247,331.112976 301.388824,331.109222 
	C301.543518,331.109222 301.698181,331.218414 302.554901,331.540680 
	C300.627014,336.857574 298.773468,342.234528 296.651459,347.503357 
	C296.369873,348.202545 294.736603,348.666931 293.706909,348.710510 
	C256.345123,350.293640 218.980759,351.815399 181.615936,353.325562 
	C181.152710,353.344299 180.678986,353.103516 180.027130,352.937134 
	C180.027130,345.813110 180.027130,338.718506 180.027130,331.136169 
	C194.620575,331.136169 209.060349,331.136169 224.000122,331.135986 
z" fill="white"/>
        <path d="M807.343994,353.457092 
	C802.113159,354.528992 797.097473,356.367615 792.252930,355.993103 
	C784.747803,355.412842 779.580750,349.259064 778.880676,342.107605 
	C778.128174,334.421692 781.907288,327.849152 788.815369,324.829224 
	C797.166382,321.178528 807.377014,323.914215 811.872864,331.006958 
	C816.440063,338.212219 814.734253,347.160156 807.343994,353.457092 
z" fill="white"/>
        <path d="M947.985352,418.791931 
	C949.083252,409.820129 949.626221,401.182220 951.547668,392.862640 
	C953.097107,386.153870 957.859131,381.488129 965.287598,381.020599 
	C972.855530,380.544250 978.117371,384.853119 982.471985,390.382233 
	C983.263306,391.386932 983.229370,393.196106 983.240234,394.636475 
	C983.325256,405.939911 983.322083,417.243988 983.359375,428.547821 
	C983.378540,434.368256 977.438965,441.481079 970.546204,443.857361 
	C964.478577,445.949219 958.077881,444.092133 954.040588,438.935822 
	C949.523438,433.166687 948.487366,426.293427 947.985352,418.791931 
z" fill="black"/>
        <path d="M497.100098,385.083954 
	C498.490417,391.324493 499.737854,397.213531 501.092834,403.610291 
	C490.370056,403.610291 480.990021,403.610291 470.477203,403.610291 
	C472.207001,397.221710 472.995911,390.998138 475.545074,385.606903 
	C480.328918,375.489532 490.951660,375.314758 497.100098,385.083954 
z" fill="black"/>
        <path d="M282.987793,389.102539 
	C294.072235,374.966858 311.635223,370.729034 326.413788,378.360596 
	C341.418457,386.108917 348.844177,404.096039 344.002930,420.966339 
	C339.364044,437.131500 324.589050,447.308380 307.664032,445.996277 
	C283.276215,444.105560 268.790863,416.006561 280.492920,393.260468 
	C281.175537,391.933624 282.025452,390.692841 282.987793,389.102539 
z" fill="black"/>
    </mask>
  </defs>
  <g mask="url(#tokenmind-wordmark-mask)">
      <path d="M629.227417,363.999756 
	C629.226868,353.014648 629.226868,342.529541 629.226868,331.414734 
	C637.306763,331.414734 645.238892,331.280121 653.156372,331.559814 
	C654.344360,331.601776 655.725647,333.409485 656.575928,334.692932 
	C670.358704,355.497253 684.068787,376.349701 697.800476,397.187897 
	C698.791199,398.691284 699.821411,400.168671 701.245422,402.264893 
	C706.926392,392.975494 712.370544,384.161530 717.726685,375.294434 
	C725.897339,361.767670 734.078552,348.246033 742.078247,334.618256 
	C743.546082,332.117798 745.156921,331.166351 748.006409,331.285706 
	C753.140076,331.500641 758.289246,331.346436 763.791809,331.346436 
	C763.791809,372.534607 763.791809,413.373413 763.791809,454.492554 
	C753.682678,454.492554 743.755371,454.492554 733.334473,454.492554 
	C733.334473,427.435242 733.334473,400.428558 733.334473,373.421906 
	C733.059387,373.356842 732.784302,373.291779 732.509216,373.226715 
	C718.269592,397.655243 704.029907,422.083740 689.308350,447.338989 
	C673.496582,422.873596 658.185059,399.182220 642.369690,374.711334 
	C642.369690,401.661987 642.369690,427.809662 642.369690,454.336609 
	C637.890320,454.336609 633.859253,454.336609 629.227966,454.336609 
	C629.227966,424.359039 629.227966,394.429382 629.227417,363.999756 
z" fill="#F0F0F0"/>
      <path d="M997.025635,454.804077 
	C992.877625,454.804535 989.222351,454.804535 985.155945,454.804535 
	C984.742249,451.578400 984.353271,448.544800 983.961792,445.492004 
	C983.446411,445.613556 983.053101,445.583282 982.887207,445.762970 
	C971.655457,457.931061 958.171570,459.804443 943.192871,454.297455 
	C927.750793,448.620148 919.934753,436.726959 918.451294,421.029816 
	C917.748840,413.596466 918.539246,405.594879 920.591919,398.404114 
	C928.432495,370.936951 962.056580,361.437927 983.195068,377.378723 
	C983.195068,361.983948 983.195068,346.955750 983.195068,331.557678 
	C992.900208,331.557678 1002.115845,331.557678 1012.158569,331.557678 
	C1012.158569,372.316437 1012.158569,413.190155 1012.158569,454.803650 
	C1007.722046,454.803650 1002.620117,454.803650 997.025635,454.804077 
M948.026001,419.263306 
	C948.487366,426.293427 949.523438,433.166687 954.040588,438.935822 
	C958.077881,444.092133 964.478577,445.949219 970.546204,443.857361 
	C977.438965,441.481079 983.378540,434.368256 983.359375,428.547821 
	C983.322083,417.243988 983.325256,405.939911 983.240234,394.636475 
	C983.229370,393.196106 983.263306,391.386932 982.471985,390.382233 
	C978.117371,384.853119 972.855530,380.544250 965.287598,381.020599 
	C957.859131,381.488129 953.097107,386.153870 951.547668,392.862640 
	C949.626221,401.182220 949.083252,409.820129 948.026001,419.263306 
z" fill="#EFEFEF"/>
      <path d="M860.884888,388.717041 
	C855.354065,391.092651 853.636597,394.731201 853.783997,400.566956 
	C854.233582,418.366425 853.947083,436.184479 853.947083,454.360260 
	C844.387146,454.360260 835.156616,454.360260 825.614075,454.360260 
	C825.614075,426.600372 825.614075,398.983276 825.614075,370.942566 
	C834.840942,370.942566 844.208618,370.942566 853.798828,370.942566 
	C853.798828,374.708740 853.798828,378.349091 853.798828,382.989807 
	C857.505859,380.305420 860.598999,378.033478 863.725281,375.808105 
	C871.489319,370.281403 880.036316,367.638641 889.605713,368.959503 
	C900.217773,370.424286 907.667053,377.502930 907.894592,388.176331 
	C908.362610,410.128815 908.035339,432.098297 908.035339,454.405853 
	C898.802673,454.405853 889.545105,454.405853 879.785583,454.405853 
	C879.696533,453.166901 879.511658,451.742188 879.504333,450.316559 
	C879.409546,431.984375 879.355774,413.651947 879.258301,395.319794 
	C879.198364,384.072937 875.309326,381.628815 865.172729,386.426788 
	C863.822449,387.065887 862.522522,387.811432 860.884888,388.717041 
z" fill="#EFEFEF"/>
      <path d="M598.036987,454.716980 
	C594.247131,454.717316 590.950134,454.717316 587.072632,454.717316 
	C587.072632,452.482391 587.075317,450.712555 587.072205,448.942719 
	C587.039246,430.451019 587.057983,411.959045 586.947998,393.467804 
	C586.897827,385.030457 583.057617,382.480896 575.037048,385.339264 
	C573.788757,385.784088 572.617371,386.440033 571.390991,386.951599 
	C564.470215,389.838531 561.157898,394.199982 561.537537,402.505035 
	C562.319641,419.612427 561.772827,436.780518 561.772827,454.324768 
	C552.257751,454.324768 543.027588,454.324768 533.430664,454.324768 
	C533.430664,426.584717 533.430664,398.845886 533.430664,370.830719 
	C542.550232,370.830719 551.801941,370.830719 561.560913,370.830719 
	C561.560913,374.607910 561.560913,378.176758 561.560913,382.542419 
	C565.456848,379.758118 568.545715,377.326752 571.849976,375.235870 
	C578.706970,370.896881 585.950317,367.878448 594.391907,368.706177 
	C608.307617,370.070618 615.621643,377.328186 615.821655,391.382324 
	C616.117737,412.196106 615.898254,433.017212 615.898254,454.716675 
	C610.015808,454.716675 604.272827,454.716675 598.036987,454.716980 
z" fill="#EFEFEF"/>
      <path d="M482.915100,442.298218 
	C497.595184,450.028717 510.632660,444.702972 523.557312,438.299683 
	C525.664185,446.581085 525.709717,446.676147 518.133545,450.304108 
	C501.341370,458.345276 484.102478,459.053314 466.816620,452.338806 
	C445.614532,444.103149 436.401276,420.453003 444.503479,396.787506 
	C454.844543,366.582642 494.587341,361.299164 513.883789,377.152069 
	C525.231812,386.474976 527.535889,399.411591 526.929993,414.066101 
	C517.578186,414.066101 508.328247,414.066132 499.078308,414.066132 
	C489.931458,414.066132 480.784607,414.066101 471.100433,414.066101 
	C471.545563,425.112213 473.127106,435.160126 482.915100,442.298218 
M496.957184,384.732452 
	C490.951660,375.314758 480.328918,375.489532 475.545074,385.606903 
	C472.995911,390.998138 472.207001,397.221710 470.477203,403.610291 
	C480.990021,403.610291 490.370056,403.610291 501.092834,403.610291 
	C499.737854,397.213531 498.490417,391.324493 496.957184,384.732452 
z" fill="#F1F1F1"/>
      <path d="M220.481873,376.999603 
	C220.477921,369.717926 220.477921,362.936188 220.477921,355.791077 
	C231.163483,355.280243 241.416412,354.790070 252.042206,354.282074 
	C252.042206,387.789612 252.042206,421.140930 252.042206,454.723145 
	C241.712280,454.723145 231.448318,454.723145 220.485825,454.723145 
	C220.485825,428.987488 220.485825,403.243500 220.481873,376.999603 
z" fill="#F0F0F0"/>
      <path d="M424.944458,393.947327 
	C421.800995,397.146149 418.912445,400.098907 415.872559,403.206360 
	C427.536774,420.026764 439.171936,436.805206 451.606659,454.736694 
	C445.278412,454.736694 439.815460,454.043488 434.596893,454.878174 
	C423.045166,456.725830 415.701691,452.565247 410.553864,442.014801 
	C406.963806,434.656982 401.467773,428.229126 396.115234,420.342896 
	C396.115234,432.348480 396.115234,443.187927 396.115234,454.393677 
	C386.379242,454.393677 377.130768,454.393677 367.168549,454.393677 
	C367.168549,448.594086 367.027344,442.673218 367.284454,436.769745 
	C367.337616,435.549713 368.727112,434.247955 369.746826,433.230591 
	C390.139282,412.885010 410.561584,392.569305 431.013458,372.283478 
	C431.786987,371.516205 432.900116,370.650482 433.885162,370.612518 
	C438.471100,370.435638 443.067627,370.534149 447.624939,370.534149 
	C439.968475,378.443817 432.583923,386.072540 424.944458,393.947327 
z" fill="#EFEFEF"/>
      <path d="M354.452667,393.576691 
	C364.544220,420.997894 348.884125,447.105835 326.793274,454.480896 
	C303.084473,462.396057 277.282532,451.437347 267.917480,429.392365 
	C258.176300,406.462006 267.469635,379.862732 289.368042,368.745544 
	C311.047546,357.739471 343.108734,364.074554 354.452667,393.576691 
M282.797546,389.412018 
	C282.025452,390.692841 281.175537,391.933624 280.492920,393.260468 
	C268.790863,416.006561 283.276215,444.105560 307.664032,445.996277 
	C324.589050,447.308380 339.364044,437.131500 344.002930,420.966339 
	C348.844177,404.096039 341.418457,386.108917 326.413788,378.360596 
	C311.635223,370.729034 294.072235,374.966858 282.797546,389.412018 
z" fill="#F0EFEE"/>
      <path d="M781.956787,414.000000 
	C781.955933,399.359802 781.955933,385.219604 781.955933,370.872681 
	C791.493286,370.872681 800.779602,370.872681 810.400879,370.872681 
	C810.400879,398.689148 810.400879,426.369751 810.400879,454.380951 
	C800.973938,454.380951 791.737122,454.380951 781.957581,454.380951 
	C781.957581,441.028961 781.957581,427.764496 781.956787,414.000000 
z" fill="#EFEFEF"/>
      <path d="M367.224609,409.998840 
	C367.222565,383.568848 367.222565,357.638733 367.222565,331.456970 
	C376.894836,331.456970 386.115845,331.456970 395.851227,331.456970 
	C395.851227,336.011688 395.850861,340.296875 395.851318,344.582092 
	C395.853149,362.232178 395.899475,379.882507 395.790802,397.531921 
	C395.779541,399.360870 395.396057,401.690186 394.254211,402.929230 
	C385.932343,411.959229 377.371918,420.769440 368.886841,429.649078 
	C368.333466,429.309723 367.780060,428.970398 367.226654,428.631042 
	C367.226654,422.586914 367.226654,416.542786 367.224609,409.998840 
z" fill="#EEEEEE"/>
      <path d="M224.000122,331.135986 
	C250.129684,331.124542 275.759247,331.112976 301.388824,331.109222 
	C301.543518,331.109222 301.698181,331.218414 302.554901,331.540680 
	C300.627014,336.857574 298.773468,342.234528 296.651459,347.503357 
	C296.369873,348.202545 294.736603,348.666931 293.706909,348.710510 
	C256.345123,350.293640 218.980759,351.815399 181.615936,353.325562 
	C181.152710,353.344299 180.678986,353.103516 180.027130,352.937134 
	C180.027130,345.813110 180.027130,338.718506 180.027130,331.136169 
	C194.620575,331.136169 209.060349,331.136169 224.000122,331.135986 
z" fill="#EDEDEE"/>
      <path d="M807.343994,353.457092 
	C802.113159,354.528992 797.097473,356.367615 792.252930,355.993103 
	C784.747803,355.412842 779.580750,349.259064 778.880676,342.107605 
	C778.128174,334.421692 781.907288,327.849152 788.815369,324.829224 
	C797.166382,321.178528 807.377014,323.914215 811.872864,331.006958 
	C816.440063,338.212219 814.734253,347.160156 807.343994,353.457092 
z" fill="#EFEFEF"/>
  </g>
</svg>
