<svg xmlns="http://www.w3.org/2000/svg" viewBox="209.37 205.5 604.94 571.01" role="img" aria-label="TokenMind logo">
  <path fill="none" opacity="1.000000" stroke="#F3F3F5" stroke-linecap="round" stroke-linejoin="round" stroke-width="5.000000" d="M579.000000,226.000000 
	C579.000000,367.666656 579.000000,509.333344 579.000000,651.000000"/>
  <path fill="none" opacity="1.000000" stroke="#F3F3F5" stroke-linecap="round" stroke-linejoin="round" stroke-width="5.000000" d="M601.000000,235.000000 
	C601.000000,375.000000 601.000000,515.000000 601.000000,655.000000"/>
  <path fill="none" opacity="1.000000" stroke="#F3F3F5" stroke-linecap="round" stroke-linejoin="round" stroke-width="9.000000" d="M552.000000,609.000000 
	C552.780151,608.257446 554.372986,608.248657 554.033325,606.493530 
	C553.846863,605.529663 554.000000,604.500000 554.000000,603.500000 
	C554.000000,478.166656 554.008301,352.833344 553.920532,227.500061 
	C553.919250,225.618713 555.460510,223.024796 552.500000,221.750000"/>
  <path fill="none" opacity="1.000000" stroke="#F3F3F5" stroke-linecap="round" stroke-linejoin="round" stroke-width="6.000000" d="M634.500000,243.500000 
	C634.500000,365.833344 634.500000,488.166656 634.500000,610.500000"/>
  <path fill="none" opacity="1.000000" stroke="#F3F3F5" stroke-linecap="round" stroke-linejoin="round" stroke-width="8.000000" d="M531.500000,219.500000 
	C531.666687,338.000000 531.833313,456.500000 532.000000,575.000000"/>
  <path fill="none" opacity="1.000000" stroke="#F3F3F5" stroke-linecap="round" stroke-linejoin="round" stroke-width="5.000000" d="M508.000000,222.000000 
	C508.000000,334.333344 508.000000,446.666656 508.000000,559.000000"/>
  <path fill="none" opacity="1.000000" stroke="#F3F3F5" stroke-linecap="round" stroke-linejoin="round" stroke-width="7.000000" d="M611.250000,293.000000 
	C611.516235,301.170227 610.852661,309.398743 611.262939,317.486664 
	C611.864868,329.351288 610.417297,341.137939 611.283203,353.015808 
	C612.018677,363.103485 612.127991,373.347229 611.022400,383.502441 
	C610.861023,384.984863 611.000000,386.500000 611.000000,388.000000 
	C611.000000,466.333344 611.000000,544.666687 611.000000,623.000000"/>
  <path fill="none" opacity="1.000000" stroke="#F3F3F5" stroke-linecap="round" stroke-linejoin="round" stroke-width="8.000000" d="M661.500000,256.500000 
	C661.500000,362.000000 661.504150,467.500000 661.479065,573.000000 
	C661.478333,576.000061 661.166626,579.000000 661.000000,582.000000"/>
  <path fill="none" opacity="1.000000" stroke="#F3F3F5" stroke-linecap="round" stroke-linejoin="round" stroke-width="6.000000" d="M489.000000,221.000000 
	C489.166656,226.500000 489.477081,231.999954 489.478699,237.500000 
	C489.507935,337.333344 489.501190,437.166656 489.489563,537.000000 
	C489.489380,538.666687 489.333374,540.333313 489.250031,542.000000"/>
  <path fill="none" opacity="1.000000" stroke="#F3F3F5" stroke-linecap="round" stroke-linejoin="round" stroke-width="9.000000" d="M683.000000,270.000000 
	C683.000000,373.000000 683.000000,476.000000 683.000000,579.000000"/>
  <path fill="none" opacity="1.000000" stroke="#F3F3F5" stroke-linecap="round" stroke-linejoin="round" stroke-width="6.000000" d="M471.250000,226.000000 
	C471.333344,227.666672 471.489349,229.333313 471.489594,231.000000 
	C471.501312,321.666656 471.588257,412.333557 471.357452,502.999634 
	C471.335419,511.651276 471.488037,520.339539 471.000000,529.000000"/>
  <path fill="none" opacity="1.000000" stroke="#F3F3F5" stroke-linecap="round" stroke-linejoin="round" stroke-width="10.000000" d="M449.500000,222.500000 
	C449.500000,318.833344 449.500000,415.166656 449.500000,511.500000"/>
  <path fill="none" opacity="1.000000" stroke="#F3F3F5" stroke-linecap="round" stroke-linejoin="round" stroke-width="10.000000" d="M705.500000,285.500000 
	C705.500000,381.166656 705.500000,476.833344 705.500000,572.500000"/>
  <path fill="none" opacity="1.000000" stroke="#F3F3F5" stroke-linecap="round" stroke-linejoin="round" stroke-width="11.000000" d="M426.750000,228.000000 
	C425.367920,229.678955 426.032562,231.667221 426.031830,233.500015 
	C425.995575,326.000000 426.000000,418.500000 426.000000,511.000000"/>
  <path fill="none" opacity="1.000000" stroke="#F3F3F5" stroke-linecap="round" stroke-linejoin="round" stroke-width="6.000000" d="M401.250000,234.000000 
	C401.333344,235.666672 401.489349,237.333313 401.489563,239.000000 
	C401.501312,329.500000 401.500000,420.000000 401.500000,510.500000"/>
  <path fill="none" opacity="1.000000" stroke="#F3F3F5" stroke-linecap="round" stroke-linejoin="round" stroke-width="7.000000" d="M362.750000,246.000000 
	C362.168549,254.673065 362.890350,263.335449 362.931702,272.000336 
	C363.097168,306.666199 363.000000,341.333344 363.000000,376.000000 
	C363.000000,406.833344 363.351807,437.672241 362.863373,468.497833 
	C362.585999,486.005310 362.849457,503.500092 362.750000,521.000000"/>
  <path fill="none" opacity="1.000000" stroke="#F3F3F5" stroke-linecap="round" stroke-linejoin="round" stroke-width="11.000000" d="M332.000000,263.000000 
	C332.000000,348.000000 332.000000,433.000000 332.000000,518.000000"/>
  <path fill="none" opacity="1.000000" stroke="#F3F3F5" stroke-linecap="round" stroke-linejoin="round" stroke-width="6.000000" d="M382.500000,237.500000 
	C382.500000,322.166656 382.500000,406.833344 382.500000,491.500000"/>
  <path fill="none" opacity="1.000000" stroke="#F3F3F5" stroke-linecap="round" stroke-linejoin="round" stroke-width="10.000000" d="M733.000000,305.000000 
	C731.002991,306.821198 731.507629,309.231354 731.507324,311.500000 
	C731.498596,390.833344 731.500000,470.166656 731.500000,549.500000"/>
  <path fill="none" opacity="1.000000" stroke="#F3F3F5" stroke-linecap="round" stroke-linejoin="round" stroke-width="5.000000" d="M284.000000,291.000000 
	C284.000000,360.166656 284.005615,429.333344 283.966095,498.499969 
	C283.965149,500.156433 284.558685,501.922546 283.500000,503.500000"/>
  <path fill="none" opacity="1.000000" stroke="#F3F3F5" stroke-linecap="round" stroke-linejoin="round" stroke-width="8.000000" d="M755.500000,329.500000 
	C755.500000,396.666656 755.504333,463.833344 755.479004,531.000000 
	C755.478271,533.000061 755.166687,535.000000 755.000000,537.000000"/>
  <path fill="none" opacity="1.000000" stroke="#F3F3F5" stroke-linecap="round" stroke-linejoin="round" stroke-width="6.000000" d="M265.000000,309.000000 
	C266.106873,368.164032 265.209991,427.333679 265.500000,486.500000"/>
  <path fill="none" opacity="1.000000" stroke="#F3F3F5" stroke-linecap="round" stroke-linejoin="round" stroke-width="7.000000" d="M350.500000,311.500000 
	C349.694183,369.833344 349.694183,428.166656 350.500000,486.500000"/>
  <path fill="none" opacity="1.000000" stroke="#F3F3F5" stroke-linecap="round" stroke-linejoin="round" stroke-width="10.000000" d="M647.500000,447.500000 
	C647.500000,502.833344 647.500000,558.166687 647.500000,613.500000"/>
  <path fill="none" opacity="1.000000" stroke="#F3F3F5" stroke-linecap="round" stroke-linejoin="round" stroke-width="7.000000" d="M567.000000,488.000000 
	C567.000000,541.000000 567.000000,594.000000 567.000000,647.000000"/>
  <path fill="none" opacity="1.000000" stroke="#F3F3F5" stroke-linecap="round" stroke-linejoin="round" stroke-width="8.000000" d="M245.500000,332.500000 
	C245.500000,377.500000 245.500000,422.500000 245.500000,467.500000"/>
  <path fill="none" opacity="1.000000" stroke="#F3F3F5" stroke-linecap="round" stroke-linejoin="round" stroke-width="10.000000" d="M777.500000,370.500000 
	C777.500000,415.500000 777.500000,460.500000 777.500000,505.500000"/>
  <path fill="none" opacity="1.000000" stroke="#F3F3F5" stroke-linecap="round" stroke-linejoin="round" stroke-width="11.000000" d="M307.500000,280.500000 
	C308.588135,316.995789 307.830627,353.500092 307.968567,390.000122 
	C308.110291,427.499573 307.980194,465.000031 308.049713,502.499908 
	C308.053833,504.726501 307.990448,506.538818 305.500000,507.250000"/>
  <path fill="none" opacity="1.000000" stroke="#F3F3F5" stroke-linecap="round" stroke-linejoin="round" stroke-width="7.000000" d="M751.500000,724.500000 
	C749.051392,724.399780 747.092590,723.283997 744.944275,722.101257 
	C734.398254,716.295471 723.327942,718.496399 717.011719,726.509216 
	C709.537537,735.991211 711.801697,750.565430 719.469116,756.539612 
	C726.614563,762.107117 735.768921,762.500366 744.462280,756.940979 
	C746.845642,755.416870 748.861633,753.404114 752.000000,754.000000"/>
  <path fill="none" opacity="1.000000" stroke="#F3F3F5" stroke-linecap="round" stroke-linejoin="round" stroke-width="6.000000" d="M419.000000,738.500000 
	C429.166656,738.500000 439.334045,738.565125 449.499542,738.457092 
	C452.257843,738.427795 455.868347,739.729858 457.377167,736.443604 
	C458.946075,733.026428 457.102936,729.272949 455.346313,726.601013 
	C450.175964,718.736816 441.978943,717.591675 433.518890,719.105530 
	C425.752319,720.495300 419.496216,725.488281 418.257324,733.042175 
	C415.278687,751.203308 424.077087,762.513428 443.993469,760.679016 
	C448.229279,760.288940 452.218781,758.534424 456.000000,756.500000"/>
  <path fill="none" opacity="1.000000" stroke="#F3F3F5" stroke-linecap="round" stroke-linejoin="round" stroke-width="6.000000" d="M224.500000,363.500000 
	C224.333328,379.333344 223.738068,395.178253 224.166214,410.995514 
	C224.409805,419.995026 223.366928,429.031464 224.750000,438.000000"/>
  <path fill="none" opacity="1.000000" stroke="#F3F3F5" stroke-linecap="round" stroke-linejoin="round" stroke-width="9.000000" d="M693.000000,759.000000 
	C693.000000,751.500000 692.936157,743.999268 693.019226,736.500183 
	C693.092163,729.916687 692.373413,723.543884 685.464111,720.583679 
	C678.473328,717.588623 671.446716,718.121094 665.014465,722.521118 
	C662.544556,724.210571 660.351501,726.398621 657.000000,726.000000"/>
  <path fill="none" opacity="1.000000" stroke="#F3F3F5" stroke-linecap="round" stroke-linejoin="round" stroke-width="9.000000" d="M514.000000,759.000000 
	C514.000000,751.333313 513.806946,743.660339 514.059326,736.001953 
	C514.272095,729.545715 512.962219,723.576477 506.923126,720.659180 
	C500.631287,717.619812 493.787506,718.086853 487.525635,721.546448 
	C484.436005,723.253418 482.069214,726.405396 478.000000,726.000000"/>
  <path fill="none" opacity="1.000000" stroke="#F3F3F5" stroke-linecap="round" stroke-linejoin="round" stroke-width="7.000000" d="M800.000000,422.000000 
	C799.915222,442.500671 800.305725,463.005188 799.500000,483.500000"/>
  <path fill="none" opacity="1.000000" stroke="#F3F3F5" stroke-linecap="round" stroke-linejoin="round" stroke-width="6.000000" d="M611.250000,234.000000 
	C611.333313,252.666672 611.415466,271.333344 611.502563,290.000000 
	C611.509094,291.387604 611.681885,292.878815 609.500000,292.500000"/>
  <path fill="none" opacity="1.000000" stroke="#F3F3F5" stroke-linecap="round" stroke-linejoin="round" stroke-width="10.000000" d="M274.500000,700.500000 
	C274.500000,719.833313 274.500000,739.166687 274.500000,758.500000"/>
  <path fill="none" opacity="1.000000" stroke="#F3F3F5" stroke-linecap="round" stroke-linejoin="round" stroke-width="9.000000" d="M538.500000,699.500000 
	C539.875305,702.166687 540.789490,704.633179 538.627991,707.593445 
	C537.696960,708.868652 538.026672,711.166321 538.022034,713.000061 
	C537.983276,728.333252 538.000000,743.666687 538.000000,759.000000"/>
  <path fill="none" opacity="1.000000" stroke="#F3F3F5" stroke-linecap="round" stroke-linejoin="round" stroke-width="10.000000" d="M604.000000,700.000000 
	C602.776367,702.333313 602.122925,704.460815 603.871826,707.085449 
	C604.769043,708.431946 604.473267,710.666321 604.477905,712.500061 
	C604.516724,727.833252 604.500000,743.166687 604.500000,758.500000"/>
  <path fill="none" opacity="1.000000" stroke="#F3F3F5" stroke-linecap="round" stroke-linejoin="round" stroke-width="8.000000" d="M602.000000,704.500000 
	C598.623413,705.189270 597.095093,707.711853 595.438354,710.462830 
	C588.802673,721.481079 581.637146,732.176086 575.441223,743.467773 
	C574.564819,745.065063 572.897095,746.228088 571.530396,747.660400 
	C566.927673,743.917786 564.722839,738.546143 561.615234,733.922546 
	C556.201294,725.867493 551.627930,717.251831 546.409119,709.057861 
	C545.120117,707.033936 543.465637,704.712463 540.500000,704.500000"/>
  <path fill="none" opacity="1.000000" stroke="#F3F3F5" stroke-linecap="round" stroke-linejoin="round" stroke-width="10.000000" d="M367.500000,696.500000 
	C367.363647,717.333557 367.885071,738.172424 367.000000,759.000000"/>
  <path fill="none" opacity="1.000000" stroke="#F3F3F5" stroke-linecap="round" stroke-linejoin="round" stroke-width="9.000000" d="M631.000000,721.000000 
	C631.000000,733.666687 631.000000,746.333313 631.000000,759.000000"/>
  <path fill="none" opacity="1.000000" stroke="#F3F3F5" stroke-linecap="round" stroke-linejoin="round" stroke-width="9.000000" d="M477.000000,721.000000 
	C477.000000,733.666687 477.000000,746.333313 477.000000,759.000000"/>
  <path fill="none" opacity="1.000000" stroke="#F3F3F5" stroke-linecap="round" stroke-linejoin="round" stroke-width="9.000000" d="M656.000000,721.000000 
	C656.000000,733.666687 656.000000,746.333313 656.000000,759.000000"/>
  <path fill="none" opacity="1.000000" stroke="#F3F3F5" stroke-linecap="round" stroke-linejoin="round" stroke-width="8.000000" d="M377.500000,738.500000 
	C384.500000,745.333313 391.376831,752.300415 398.570251,758.923706 
	C400.923340,761.090332 404.348145,761.723816 407.500000,762.500000"/>
  <path fill="none" opacity="1.000000" stroke="#F3F3F5" stroke-linecap="round" stroke-linejoin="round" stroke-width="7.000000" d="M405.500000,717.500000 
	C394.354431,719.919373 387.454926,728.615723 379.675720,735.693115 
	C375.785370,739.232483 371.982483,738.071777 368.000000,738.500000"/>
  <path fill="none" opacity="1.000000" stroke="#F3F3F5" stroke-linecap="round" stroke-linejoin="round" stroke-width="9.000000" d="M753.000000,696.000000 
	C752.936218,705.342957 752.842407,714.671509 752.385498,724.018860 
	C752.117920,729.493103 752.807556,735.329285 752.963135,741.001038 
	C753.127563,746.996521 753.000000,753.000000 753.000000,759.000000"/>
  <path fill="none" opacity="1.000000" stroke="#F3F3F5" stroke-linecap="round" stroke-linejoin="round" stroke-width="8.000000" d="M299.500000,698.500000 
	C291.177612,699.182312 282.681335,699.334106 274.500000,699.334106 
	C266.318665,699.334106 257.822388,699.182312 249.500000,698.500000"/>
  <path fill="none" opacity="1.000000" stroke="#F3F3F5" stroke-linecap="round" stroke-linejoin="round" stroke-width="7.000000" d="M320.000000,719.000000 
	C313.350616,721.084778 307.401367,723.943298 304.460541,730.983521 
	C301.095245,739.039978 301.722168,746.922913 307.161530,753.363586 
	C312.807831,760.049377 320.435120,762.100586 329.538727,760.183899 
	C338.961578,758.200012 344.719116,753.238770 346.441040,743.989014 
	C349.106567,729.670166 340.259552,720.900635 327.493164,719.047180 
	C325.207977,718.715393 322.833344,719.000000 320.500000,719.000000"/>
  <circle fill="#F3F3F5" cx="631" cy="703" r="6"/>
</svg>
