<svg version="1.1" role="img" aria-label="TokenMind logo" xmlns="http://www.w3.org/2000/svg" xmlns:xlink="http://www.w3.org/1999/xlink" x="0px" y="0px"
	 viewBox="94 214 846 157" xml:space="preserve">
<path fill="#000000" opacity="1.000000" stroke="none" 
	d="
M578.801758,340.153564 
	C582.088013,344.328796 586.638000,345.521942 591.019775,347.724243 
	C578.874084,347.724243 566.728394,347.724243 554.576599,347.724640 
	C554.642761,347.438324 554.653625,346.936188 554.796143,346.895508 
	C568.182556,343.075287 569.362610,331.961151 569.523315,320.969391 
	C569.893555,295.645752 569.681152,270.312988 569.631348,244.984070 
	C569.616028,237.216888 566.528931,231.442200 558.554626,229.156876 
	C557.919189,228.974747 557.314148,228.668732 556.719055,228.371918 
	C556.439270,228.232346 556.216858,227.977676 555.758667,227.604065 
	C556.921753,225.844849 558.638184,226.102737 560.170715,226.096771 
	C567.669189,226.067551 575.170715,226.220200 582.665283,226.050507 
	C586.702271,225.959106 588.836914,227.543015 590.586975,231.297653 
	C601.704224,255.148727 613.107727,278.866425 624.449158,302.612640 
	C624.847900,303.447540 624.994080,304.587646 626.223755,304.885040 
	C627.786682,303.933136 627.979248,302.148560 628.631775,300.692261 
	C638.915405,277.740021 649.255432,254.811859 659.304077,231.756790 
	C661.133057,227.560562 663.679138,225.957275 668.021912,226.051468 
	C674.517212,226.192337 681.018738,226.024719 687.517212,226.063629 
	C689.123108,226.073242 690.888306,225.751038 692.163574,227.198715 
	C692.014099,228.558075 690.829712,228.608154 689.970886,228.898483 
	C683.986450,230.921555 681.127625,235.194855 681.097168,241.364990 
	C681.039612,253.027115 681.072632,264.689880 681.113281,276.352203 
	C681.166687,291.682617 681.297729,307.012878 681.318359,322.343262 
	C681.323547,326.188110 681.654297,329.972778 682.237732,333.770569 
	C683.219543,340.162170 686.196716,344.635773 692.934082,345.916809 
	C693.689392,346.060394 694.373291,346.580017 694.999573,347.764648 
	C679.353394,347.764648 663.707214,347.764648 648.073303,347.764648 
	C647.940857,346.655518 648.674622,346.422272 649.245361,346.217224 
	C658.754456,342.800690 660.957397,340.193787 660.901367,330.214813 
	C660.749817,303.227600 661.259888,276.231689 660.067749,249.255508 
	C660.012207,247.998947 660.418213,246.586288 658.644958,245.068741 
	C644.575684,274.336792 632.295837,304.178497 618.930115,333.507904 
	C618.287170,333.506805 617.644226,333.505737 617.001221,333.504639 
	C602.887939,304.298096 588.774597,275.091553 574.661316,245.885010 
	C574.363281,245.964630 574.065247,246.044266 573.767212,246.123901 
	C573.634949,248.546936 573.391174,250.969803 573.387817,253.393021 
	C573.357788,274.889252 573.200378,296.387634 573.461914,317.880737 
	C573.554321,325.470551 573.604980,333.306549 578.801758,340.153564 
z"/>
<path fill="#000000" opacity="1.000000" stroke="none" 
	d="
M839.806641,335.084778 
	C823.555298,308.527496 836.317688,273.967346 864.866089,266.504181 
	C873.005737,264.376312 881.015869,265.026489 888.847534,268.130737 
	C890.496094,268.784180 891.993347,270.014679 894.401184,269.750183 
	C894.401184,260.318268 894.605408,250.899002 894.315918,241.494934 
	C894.169128,236.725601 889.633789,235.550659 885.958618,232.486923 
	C894.711914,229.714172 903.465210,226.941406 912.079895,224.212555 
	C913.739319,227.060638 913.243042,229.275650 913.245300,231.388580 
	C913.279175,263.204468 913.252197,295.020416 913.276367,326.836334 
	C913.281494,333.605896 911.707153,341.275085 922.556519,342.636078 
	C916.010559,345.727081 909.775696,346.412506 903.770325,347.872589 
	C894.838501,350.044189 894.812134,349.939453 894.719299,340.743683 
	C894.709290,339.753967 894.717957,338.764069 894.717957,336.377930 
	C886.615601,345.367462 877.771179,350.843475 866.386047,350.228271 
	C855.233826,349.625671 846.293945,344.789124 839.806641,335.084778 
M859.579834,277.131927 
	C849.653687,291.410614 849.518982,316.633759 859.296631,330.147583 
	C866.671448,340.340546 879.051147,342.827209 889.285278,336.235046 
	C892.910583,333.899841 894.882874,330.961365 894.798035,326.372742 
	C894.576355,314.378571 894.716064,302.377808 894.703308,290.379669 
	C894.693604,281.266113 889.608704,273.234650 881.932434,270.183533 
	C874.145691,267.088501 866.934143,269.199280 859.579834,277.131927 
z"/>
<path fill="#000000" opacity="1.000000" stroke="none" 
	d="
M309.660767,329.855713 
	C309.648987,302.550690 309.564972,275.725983 309.678284,248.902069 
	C309.707642,241.957199 309.234741,235.653183 300.918030,234.119919 
	C300.875763,231.998489 302.245636,231.977646 303.273438,231.643402 
	C309.131165,229.738602 315.002258,227.875092 320.863098,225.979874 
	C328.039154,223.659348 328.193420,223.756622 328.195801,231.122620 
	C328.203217,254.114929 328.193817,277.107269 328.229614,300.099518 
	C328.232391,301.883820 327.834137,303.735870 328.710144,305.536987 
	C330.696075,305.643494 331.582489,303.981995 332.713013,302.938690 
	C340.546204,295.709808 348.386169,288.483429 356.039429,281.065826 
	C362.443756,274.858643 362.269714,273.375824 354.536133,267.413483 
	C364.452789,266.505493 373.439484,266.910583 382.644104,267.853516 
	C369.495178,272.073669 361.297699,282.539154 351.370148,290.669800 
	C347.900360,293.511536 347.097534,295.591339 350.202942,299.527252 
	C358.969788,310.638672 367.206635,322.166748 375.749268,333.457275 
	C379.701691,338.681061 384.189148,343.353912 390.534149,345.760712 
	C391.275269,346.041779 392.083191,346.415649 392.050446,347.458954 
	C377.422729,352.118256 363.604156,348.126099 354.767334,336.457977 
	C348.533264,328.226562 342.546753,319.807953 336.420441,311.494476 
	C335.452515,310.181030 334.740234,308.593384 332.853180,307.811737 
	C329.635559,309.341156 328.036133,311.805389 328.150787,315.609161 
	C328.311310,320.935791 328.194244,326.270874 328.189484,331.602356 
	C328.183594,338.178070 327.827148,344.924347 337.175201,347.045044 
	C332.297333,348.665955 306.005341,348.819885 300.161591,347.338989 
	C309.416168,344.442566 309.864655,337.546936 309.660767,329.855713 
z"/>
<path fill="#000000" opacity="1.000000" stroke="none" 
	d="
M157.641571,253.000061 
	C157.633392,246.668503 157.481140,240.832260 157.668732,235.006943 
	C157.789841,231.245758 156.143250,230.181717 152.603546,230.067993 
	C135.855209,229.529861 123.039665,235.501266 115.995033,251.472183 
	C115.663452,252.223907 115.183556,252.920898 114.695770,253.587021 
	C114.532745,253.809662 114.129326,253.856247 113.152290,254.279160 
	C112.189255,249.174545 114.092102,244.422867 114.054436,239.642807 
	C114.045410,238.497467 114.544006,237.355423 114.604897,236.201096 
	C115.160515,225.669006 114.352654,226.332489 125.347496,226.203598 
	C154.667831,225.859909 183.994980,226.138535 213.318542,225.991959 
	C217.944244,225.968842 220.098175,227.670181 220.205338,232.258606 
	C220.374527,239.502914 222.473251,246.617584 222.169785,253.988556 
	C219.343567,254.020554 219.430603,251.868256 218.762421,250.551498 
	C209.839142,232.966476 197.592804,229.715988 181.553131,230.117035 
	C178.995453,230.181000 178.156754,231.509186 177.820816,233.814896 
	C177.236771,237.823425 177.887894,241.794785 177.876709,245.781647 
	C177.799606,273.269714 177.624527,300.757812 177.654861,328.245697 
	C177.664993,337.429565 179.963226,345.358368 191.587341,346.549744 
	C191.354752,346.941376 191.122162,347.332977 190.889557,347.724609 
	C175.549210,347.724609 160.208862,347.724609 144.712265,347.724609 
	C144.924332,347.291229 145.053818,346.589630 145.329346,346.526672 
	C155.638107,344.169739 157.610748,336.390564 157.629791,327.478516 
	C157.682480,302.819122 157.643997,278.159515 157.641571,253.000061 
z"/>
<path fill="#000000" opacity="1.000000" stroke="none" 
	d="
M803.869141,266.621979 
	C814.833496,270.489838 819.067688,278.660522 819.248230,289.177185 
	C819.496887,303.663757 819.329773,318.157654 819.318359,332.648407 
	C819.313416,338.902344 819.859680,344.830505 827.126587,347.784424 
	C816.093689,347.784424 805.060730,347.784424 794.027832,347.784424 
	C802.422729,343.748138 800.823914,336.097351 800.855286,329.113129 
	C800.909912,316.954529 800.915649,304.794983 800.827576,292.636658 
	C800.761597,283.535278 797.921814,278.569794 791.832153,276.414490 
	C785.012085,274.000702 774.425354,276.897583 769.830627,282.392090 
	C768.346985,284.166260 767.938965,286.209137 767.943054,288.438873 
	C767.971252,303.762146 767.995422,319.085480 767.979309,334.408722 
	C767.973389,340.073242 768.870544,345.171143 775.190002,347.844421 
	C763.917053,347.844421 752.644104,347.844421 741.328003,347.844421 
	C741.156067,346.180573 742.609070,346.147034 743.568909,345.758881 
	C747.100464,344.330750 748.750549,341.572357 748.769531,337.963623 
	C748.864197,319.979431 748.869690,301.994659 748.864746,284.010101 
	C748.863281,278.685791 744.786560,276.919342 739.382202,274.868652 
	C748.900146,270.736572 757.722473,268.594818 766.121948,265.850189 
	C769.479370,269.766327 765.915161,274.334229 768.941406,278.230530 
	C778.490967,268.535889 789.547485,263.082245 803.869141,266.621979 
z"/>
<path fill="#000000" opacity="1.000000" stroke="none" 
	d="
M533.000061,348.372284 
	C527.062744,348.371826 521.624146,348.371826 516.185547,348.371826 
	C515.876587,348.046509 515.567688,347.721222 515.258728,347.395905 
	C525.440125,343.810333 523.671570,335.612518 523.702759,328.161896 
	C523.752991,316.169586 523.743347,304.176697 523.686646,292.184387 
	C523.643127,282.983429 520.367249,277.976593 513.295044,276.037689 
	C505.798523,273.982391 495.236389,277.735291 491.454010,283.724792 
	C490.401978,285.390717 490.376099,287.177917 490.376007,289.013397 
	C490.375366,303.670959 490.328491,318.328705 490.394348,332.985962 
	C490.421387,339.002686 490.912445,344.897491 498.088867,347.743896 
	C486.779327,347.743896 475.469788,347.743896 464.160217,347.743896 
	C473.254974,344.516693 471.974701,336.821808 471.991943,329.764801 
	C472.024506,316.439911 471.888733,303.114227 471.984741,289.790039 
	C472.032501,283.162476 472.358276,276.582794 462.835419,275.146484 
	C471.690125,270.647400 480.576355,268.643951 489.300751,265.716705 
	C491.387909,269.926422 489.503662,274.104401 490.852966,277.900604 
	C493.395081,277.919769 494.262878,275.811890 495.671539,274.590149 
	C504.534637,266.903168 514.548584,263.386322 526.156433,266.567200 
	C536.363831,269.364258 542.091309,277.697174 542.221375,289.743835 
	C542.376099,304.066711 542.320312,318.392487 542.263794,332.716644 
	C542.239136,338.954132 542.374756,344.987427 550.588867,346.856049 
	C550.365173,347.361603 550.141479,347.867188 549.917786,348.372742 
	C544.444763,348.372742 538.971802,348.372742 533.000061,348.372284 
z"/>
<path fill="#000000" opacity="1.000000" stroke="none" 
	d="
M272.585602,345.789429 
	C250.832108,354.945984 227.854172,349.526123 216.439911,332.283936 
	C206.625290,317.458099 206.472351,301.695465 215.026428,286.437439 
	C223.548889,271.235809 237.424667,264.496307 254.696213,265.565735 
	C276.676788,266.926697 291.028870,279.153900 294.897369,299.096680 
	C298.458923,317.457245 289.797729,335.784271 272.585602,345.789429 
M229.278458,302.524231 
	C229.319550,315.949646 231.619415,328.858734 240.280045,339.556946 
	C249.569366,351.031738 264.226044,348.973267 270.720612,335.742065 
	C273.711487,329.648865 274.969116,323.108765 275.265137,316.446014 
	C275.864990,302.944092 274.339813,289.742767 266.640106,278.173309 
	C257.587036,264.570251 240.543976,265.999237 233.504776,280.733917 
	C230.358566,287.319641 229.095322,294.301361 229.278458,302.524231 
z"/>
<path fill="#000000" opacity="1.000000" stroke="none" 
	d="
M457.264832,326.583313 
	C457.463715,333.994843 452.614624,338.719116 447.454315,342.692200 
	C423.973907,360.770386 389.568268,345.785522 385.766968,316.011169 
	C382.946655,293.920441 393.850403,274.541809 413.114380,267.408203 
	C430.910645,260.818085 450.120331,268.804626 456.248718,285.342346 
	C456.422272,285.810669 456.634888,286.271149 456.747589,286.754364 
	C459.888184,300.222870 458.195160,298.885010 447.875061,298.918732 
	C434.887115,298.961182 421.898987,298.936279 408.911041,298.977051 
	C403.569641,298.993805 402.776642,299.902313 403.558594,305.184875 
	C404.388733,310.793182 405.623810,316.268341 408.216644,321.412750 
	C417.486053,339.804230 441.069580,343.267059 455.099945,328.232910 
	C455.658508,327.634369 456.311249,327.123718 457.264832,326.583313 
M439.767670,282.809143 
	C435.807678,268.730469 423.255005,264.239044 412.808624,273.244263 
	C407.919708,277.458771 405.975311,283.325500 404.473297,289.340973 
	C403.462006,293.391205 404.949463,295.100769 409.298889,294.966156 
	C417.094391,294.724884 424.902863,294.906525 432.705933,294.905151 
	C440.881256,294.903656 441.576782,294.119507 440.513489,286.037506 
	C440.405914,285.219971 440.126221,284.425018 439.767670,282.809143 
z"/>
<path fill="#000000" opacity="1.000000" stroke="none" 
	d="
M727.241455,330.890900 
	C727.281555,333.369110 727.274902,335.366455 727.367737,337.359161 
	C727.602661,342.400269 730.214844,345.641266 734.974609,347.803406 
	C723.636108,347.803406 712.297607,347.803406 700.959106,347.803406 
	C709.603088,344.246124 708.782227,336.797607 708.759949,329.649811 
	C708.720459,317.008881 708.750000,304.367706 708.741699,291.726654 
	C708.734436,280.676636 708.729004,280.676636 699.504883,274.049988 
	C705.914856,272.033173 711.685242,270.255859 717.430725,268.401550 
	C727.881592,265.028595 727.245422,264.345612 727.244568,275.519104 
	C727.243164,293.815369 727.241577,312.111664 727.241455,330.890900 
z"/>
<path fill="#000000" opacity="1.000000" stroke="none" 
	d="
M706.928467,244.704926 
	C704.997437,237.736771 707.550659,232.142563 713.231812,230.197968 
	C718.747559,228.310028 724.706055,230.796814 727.042114,235.961670 
	C729.453125,241.292282 727.445557,247.240646 722.290771,250.039734 
	C716.766296,253.039551 711.080200,251.181412 706.928467,244.704926 
z"/>
</svg>